<?xml version="1.0" standalone="no"?>
<!DOCTYPE svg PUBLIC "-//W3C//DTD SVG 20010904//EN"
 "http://www.w3.org/TR/2001/REC-SVG-20010904/DTD/svg10.dtd">
<svg version="1.0" xmlns="http://www.w3.org/2000/svg"
 width="612.000000pt" height="415.000000pt" viewBox="0 0 612.000000 415.000000"
 preserveAspectRatio="xMidYMid meet">

<g transform="translate(0.000000,415.000000) scale(0.100000,-0.100000)"
fill="#000000" stroke="none">
<path d="M3816 4119 c-3 -17 -6 -43 -6 -58 0 -14 -7 -35 -15 -45 -8 -11 -15
-34 -15 -52 0 -17 -6 -37 -14 -43 -9 -8 -11 -22 -6 -50 4 -21 3 -46 -2 -55 -5
-9 -6 -30 -3 -47 4 -16 2 -35 -3 -42 -5 -7 -12 -41 -15 -77 -11 -125 -17 -126
-75 -9 -75 152 -126 216 -222 278 -44 28 -80 55 -80 60 0 9 -104 27 -130 22
-8 -1 -47 -2 -87 -2 -214 3 -340 -84 -456 -314 -24 -49 -68 -128 -96 -175 -82
-134 -118 -287 -107 -443 5 -78 5 -79 -24 -105 -16 -15 -44 -41 -63 -59 -19
-17 -61 -46 -94 -63 -41 -22 -67 -45 -82 -69 -19 -34 -21 -34 -21 -11 -1 14
-6 34 -11 45 -8 16 -8 15 -4 -8 4 -19 2 -26 -5 -22 -5 3 -10 -2 -11 -12 -9
-149 -7 -203 6 -203 8 0 21 14 30 30 19 37 42 39 57 5 6 -14 15 -25 20 -25 5
0 6 -9 3 -20 -5 -16 -2 -19 16 -17 12 2 28 11 34 21 8 10 16 13 19 7 4 -5 2
-12 -4 -16 -18 -11 -10 -40 14 -51 20 -9 28 -8 40 4 9 9 16 12 16 6 0 -6 -3
-14 -7 -18 -4 -4 -6 -26 -5 -49 2 -31 -6 -60 -33 -115 -36 -73 -36 -73 -29
-167 4 -52 4 -95 1 -95 -11 0 -34 53 -46 105 -18 75 -108 254 -117 231 -9 -24
4 -213 20 -295 8 -36 17 -93 22 -126 4 -33 8 -62 9 -65 35 -124 47 -147 88
-173 23 -15 49 -26 57 -25 21 4 24 58 10 144 -11 63 -10 74 5 105 10 19 25 88
34 154 15 114 17 120 44 133 15 7 27 18 27 23 0 6 4 8 9 4 19 -11 23 -97 11
-235 -11 -115 -10 -155 0 -211 14 -72 40 -112 68 -107 14 3 17 18 19 93 3 155
2 148 18 141 16 -6 18 2 15 70 -1 38 1 42 31 53 18 6 35 11 39 11 10 0 36 -99
61 -233 23 -125 36 -147 87 -147 22 0 23 2 17 43 -4 23 -22 87 -40 142 -64
199 -77 251 -53 227 20 -20 28 -14 28 23 0 23 7 41 20 52 11 10 20 24 20 31 0
11 3 10 15 -2 8 -8 12 -22 9 -31 -6 -13 -9 -14 -16 -3 -6 8 -7 4 -2 -12 4 -14
8 -57 9 -97 1 -61 6 -78 31 -115 15 -24 35 -55 44 -70 8 -14 31 -45 50 -69 19
-23 43 -54 52 -70 25 -41 48 -49 147 -49 l90 0 49 73 c27 39 57 87 66 105 9
17 22 32 29 32 8 0 8 -3 -2 -9 -9 -6 -11 -15 -6 -27 8 -18 8 -18 12 -1 3 9 8
17 13 17 5 0 7 8 3 18 -5 14 -3 13 11 -3 16 -19 17 -19 11 10 -3 18 1 50 10
75 9 25 19 82 22 128 5 75 7 80 20 62 17 -24 33 -18 33 11 0 11 7 27 15 35 13
13 15 12 19 -8 3 -13 15 -66 27 -118 20 -93 36 -286 19 -245 -5 11 -9 40 -10
65 -1 54 -15 75 -57 84 l-31 7 15 -43 c12 -36 13 -55 3 -118 -7 -41 -16 -85
-21 -99 -13 -32 2 -41 72 -41 l56 0 16 43 c29 76 55 257 37 257 -11 0 -19 32
-34 125 -14 87 -13 95 12 95 28 -1 57 -27 44 -42 -10 -13 -12 -158 -1 -158 29
0 85 103 91 165 2 32 0 40 -14 40 -10 0 -24 9 -31 19 -8 11 -19 16 -25 12 -6
-3 -15 1 -20 10 -9 16 21 84 54 124 6 8 21 46 33 84 36 118 25 244 -34 374
-28 62 -28 63 -15 146 8 52 10 113 6 158 -7 77 -4 87 39 153 33 50 149 164
185 183 35 18 59 46 48 57 -13 14 -48 -8 -114 -70 -38 -36 -77 -68 -86 -71
-10 -3 -18 -10 -18 -15 0 -18 -49 -9 -60 12 -26 47 69 367 138 469 49 73 119
148 156 167 29 15 29 14 73 -33 56 -60 94 -135 123 -249 29 -109 49 -148 77
-150 26 -2 29 8 32 100 2 70 6 84 17 72 17 -17 -8 -513 -27 -549 -15 -28 -15
-142 1 -183 6 -16 13 -106 15 -200 3 -93 7 -197 10 -230 3 -35 -1 -96 -10
-149 -8 -49 -15 -123 -15 -165 4 -272 -1 -480 -11 -536 -10 -56 -10 -58 18
-87 34 -35 35 -61 14 -312 -15 -169 -15 -169 8 -235 16 -44 38 -81 66 -111 51
-53 101 -133 110 -175 l7 -30 -20 31 c-24 37 -33 44 -68 50 -39 7 -104 35
-104 45 0 5 -4 9 -10 9 -24 0 -7 -28 26 -40 20 -8 50 -33 67 -55 18 -22 35
-42 39 -43 5 -2 8 -8 8 -13 0 -13 64 -109 73 -109 4 0 7 14 7 32 0 17 2 29 5
26 3 -3 6 -47 6 -98 l0 -92 27 6 c15 3 79 9 142 12 105 6 124 4 211 -20 85
-23 105 -25 170 -17 41 5 223 8 404 6 l330 -3 110 -36 c60 -20 113 -36 117
-36 5 0 8 823 8 1830 l0 1830 -859 0 c-678 0 -860 -3 -864 -12 -4 -10 -6 -10
-6 0 -1 19 -98 16 -109 -4 -8 -14 -10 -14 -21 0 -11 14 -45 16 -226 16 l-212
0 -7 -31z m2019 -65 c-61 -15 -155 -18 -155 -5 0 15 28 19 120 18 l85 -1 -50
-12z m-1460 -135 c4 -11 4 -23 0 -27 -7 -7 -25 17 -25 36 0 20 18 14 25 -9z
m-908 -444 c17 -9 34 -22 37 -31 3 -8 10 -13 14 -10 5 3 10 -29 11 -72 1 -42
7 -95 12 -117 12 -45 17 -178 7 -215 -3 -14 -18 -74 -33 -135 -15 -60 -39
-130 -53 -155 -28 -49 -30 -51 -67 -95 l-26 -30 17 28 c15 24 15 32 5 49 -7
11 -8 17 -3 14 5 -3 19 15 29 40 17 38 19 54 11 88 -17 76 -13 109 22 159 24
34 33 58 34 89 1 39 -1 43 -23 43 -14 0 -26 6 -29 13 -2 8 2 10 14 5 12 -4 15
-3 10 5 -4 7 -14 12 -23 12 -13 0 -13 3 -3 15 7 8 23 15 36 15 13 0 24 4 24 9
0 9 -44 21 -98 25 -37 3 -56 16 -24 16 24 0 35 14 39 50 4 37 -5 57 -27 63
-41 11 -15 107 34 127 12 5 21 9 22 9 0 1 15 -6 31 -14z m-351 -91 c-3 -7 4
-14 15 -17 10 -3 22 -13 25 -24 4 -10 27 -37 53 -60 l46 -42 -20 -37 c-11 -21
-31 -41 -47 -46 -26 -9 -27 -10 -21 -81 5 -68 23 -120 23 -68 l0 24 21 -27
c11 -14 27 -26 35 -26 8 0 14 -3 15 -7 0 -5 1 -39 2 -78 2 -60 -1 -70 -16 -73
-27 -5 -47 17 -47 52 0 25 -5 19 -23 -34 -39 -109 -49 -120 -118 -120 -32 0
-61 5 -64 11 -4 5 -18 15 -32 20 l-26 9 47 47 c46 47 62 93 31 93 -15 0 -49
-29 -56 -47 -9 -23 -47 -24 -74 -1 -44 38 -48 158 -5 158 25 0 35 17 20 35
-20 25 5 17 34 -10 35 -33 76 -32 109 1 41 40 43 62 11 95 l-27 29 33 -10 c38
-11 50 -6 50 19 0 12 -16 22 -55 35 -30 9 -71 24 -90 32 l-35 14 25 28 c14 15
25 35 25 44 0 24 21 68 32 68 6 0 8 6 6 12 -5 14 10 32 32 40 18 7 72 -41 66
-58z m-176 -194 c12 -8 11 -10 -7 -10 -12 0 -25 5 -28 10 -8 13 15 13 35 0z
m10 -40 c0 -5 -4 -10 -10 -10 -5 0 -10 5 -10 10 0 6 5 10 10 10 6 0 10 -4 10
-10z m0 -30 c12 -8 9 -10 -13 -10 -16 0 -26 4 -22 10 8 12 16 12 35 0z m609
-162 c-17 -58 -34 -75 -24 -23 7 43 24 80 32 72 2 -3 -1 -25 -8 -49z m8 -100
c-3 -8 -6 -5 -6 6 -1 11 2 17 5 13 3 -3 4 -12 1 -19z m-24 -93 c-4 -35 -8 -43
-13 -30 -9 25 0 99 10 88 5 -4 6 -30 3 -58z m24 3 c-3 -7 -5 -2 -5 12 0 14 2
19 5 13 2 -7 2 -19 0 -25z m-347 7 c0 -8 -4 -15 -10 -15 -5 0 -10 7 -10 15 0
8 5 15 10 15 6 0 10 -7 10 -15z m-868 -44 c5 -17 18 -46 28 -64 22 -36 26 -71
8 -65 -18 5 -80 137 -74 155 9 23 29 10 38 -26z m841 -3 c-2 -5 -8 -8 -14 -8
-11 0 -12 33 -2 44 8 8 23 -25 16 -36z m109 0 c-4 -4 -18 -5 -30 -1 -22 5 -22
7 -6 24 16 18 18 18 30 1 7 -9 10 -20 6 -24z m-300 -45 c14 -12 21 -14 26 -6
5 8 15 6 32 -8 21 -16 23 -20 10 -28 -12 -9 -12 -12 3 -28 10 -12 14 -27 10
-41 -4 -17 -1 -22 14 -22 29 0 55 -23 48 -42 -10 -25 -73 -33 -96 -12 -11 10
-19 25 -18 33 2 9 -9 41 -23 73 -45 98 -46 118 -6 81z m303 -123 c3 -5 1 -10
-4 -10 -6 0 -11 5 -11 10 0 6 2 10 4 10 3 0 8 -4 11 -10z m-15 -32 c0 -4 -9
-12 -20 -18 -14 -7 -20 -7 -20 0 0 5 7 10 15 10 8 0 15 5 15 10 0 6 -5 10 -11
10 -5 0 -7 5 -3 11 6 11 23 -6 24 -23z m-400 -242 c0 -26 -6 -18 -14 19 -5 22
-4 26 4 15 5 -8 10 -24 10 -34z m0 -47 c0 -5 -4 -9 -8 -9 -5 0 -9 7 -9 15 0 8
4 12 9 9 4 -3 8 -9 8 -15z m-226 -71 c-4 -18 -14 -44 -22 -58 l-16 -25 -7 25
c-15 52 -11 70 16 70 14 0 25 5 25 10 0 6 2 10 5 10 2 0 2 -15 -1 -32z m353
-113 c17 -15 21 -23 11 -19 -10 3 -18 9 -18 14 0 4 -10 12 -22 18 -13 6 -18
11 -11 11 7 1 25 -10 40 -24z"/>
<path d="M3065 3410 c-3 -5 -1 -10 4 -10 6 0 11 5 11 10 0 6 -2 10 -4 10 -3 0
-8 -4 -11 -10z"/>
<path d="M3190 2929 c0 -11 5 -17 10 -14 6 3 10 13 10 21 0 8 -4 14 -10 14 -5
0 -10 -9 -10 -21z"/>
<path d="M26 2631 c-7 -11 13 -57 46 -104 21 -29 131 -107 152 -107 19 0 46
55 46 97 0 21 -7 56 -14 78 -12 33 -19 39 -38 37 -53 -6 -96 -6 -139 2 -31 5
-49 4 -53 -3z"/>
<path d="M915 2605 c68 -33 195 -141 195 -166 0 -6 11 -20 24 -30 13 -10 31
-33 40 -51 9 -18 34 -65 55 -103 69 -125 80 -251 39 -440 -13 -61 -71 -179
-104 -212 -33 -33 -31 -58 6 -73 17 -7 30 -15 30 -19 0 -3 50 -6 110 -6 61 0
110 3 110 6 0 4 27 15 60 25 33 11 60 24 60 29 0 16 -42 39 -74 41 -51 3 -56
24 -27 106 22 63 25 90 25 198 1 137 -12 205 -54 290 -14 30 -32 74 -40 98
-19 61 -126 174 -182 193 -24 7 -56 22 -73 32 -97 60 -155 91 -195 103 -76 23
-78 15 -5 -21z m412 -981 c6 -17 -14 -61 -32 -68 -31 -11 -55 43 -30 68 21 20
54 21 62 0z"/>
<path d="M2116 2461 c-12 -19 -10 -66 8 -131 l15 -55 -1 50 c0 81 -12 152 -22
136z"/>
<path d="M1 2354 c0 -104 -1 -104 36 -14 15 39 8 75 -21 99 -15 12 -16 4 -15
-85z"/>
<path d="M2321 2439 c-1 -12 -8 -15 -26 -11 -29 5 -31 -5 -13 -73 7 -24 18
-47 25 -49 7 -3 13 -2 13 2 1 4 5 27 9 51 5 24 5 55 1 70 -5 14 -9 19 -9 10z"/>
<path d="M2040 2340 c0 -34 13 -89 20 -85 4 2 7 -13 7 -35 0 -22 7 -47 14 -56
8 -10 14 -20 13 -23 0 -3 11 -33 26 -66 60 -135 67 -198 12 -118 -17 26 -55
77 -83 113 l-52 65 7 -37 c4 -21 29 -80 56 -133 38 -72 50 -106 50 -140 0 -55
-15 -52 -55 11 -27 43 -74 89 -82 81 -2 -2 3 -41 11 -87 8 -46 13 -87 11 -91
-11 -17 26 -27 113 -31 l92 -4 -1 45 c0 26 -4 105 -8 176 l-8 130 -62 123
c-33 67 -61 128 -61 135 0 6 -5 19 -10 27 -9 13 -10 13 -10 0z"/>
<path d="M0 1837 l0 -385 62 -21 c34 -12 72 -21 85 -21 46 0 148 -42 177 -72
25 -28 28 -36 22 -75 -7 -51 -33 -78 -105 -105 -25 -10 -51 -24 -59 -32 -26
-26 -24 -310 4 -493 l5 -33 112 0 c143 0 188 8 195 32 3 13 14 18 37 18 17 0
45 4 61 9 16 5 70 12 119 15 50 2 128 10 175 16 88 12 207 8 273 -11 36 -10
37 -12 37 -54 l0 -45 45 0 c26 0 59 -7 75 -15 17 -9 30 -13 30 -10 0 3 9 -3
21 -13 22 -21 69 -32 134 -32 35 1 38 2 20 12 -11 7 -26 17 -32 24 -21 21
-121 54 -163 54 -34 0 -39 3 -45 29 -7 33 8 98 36 152 10 20 21 68 25 105 8
91 48 177 114 246 46 48 79 109 80 143 0 13 -150 19 -168 7 -8 -5 -17 -36 -21
-68 -10 -88 -8 -86 -120 -81 -53 3 -109 10 -125 17 -16 6 -42 8 -57 5 -16 -4
-36 -2 -46 4 -16 8 -15 10 7 15 14 3 36 7 50 8 21 3 25 8 23 32 -3 43 27 60
102 58 78 -2 90 8 90 78 0 48 -2 55 -20 55 -15 0 -21 -9 -26 -37 -6 -39 -24
-68 -43 -68 -22 0 -86 51 -86 69 0 10 7 32 16 50 11 21 13 41 8 59 -4 15 -7
31 -6 35 5 19 -33 18 -69 -2 -22 -13 -45 -21 -52 -18 -6 2 -16 -6 -22 -17 -16
-31 -43 -32 -55 -1 -5 14 -17 28 -25 31 -16 6 -21 54 -7 54 5 0 17 15 27 33
14 27 16 42 9 73 -13 54 -42 59 -46 7 -3 -35 -6 -38 -36 -41 -22 -2 -34 2 -38
12 -9 23 -23 20 -50 -9 -13 -14 -31 -25 -42 -25 -23 0 -69 47 -77 81 -6 23 1
30 62 71 55 37 69 52 71 74 3 42 17 49 43 25 13 -11 25 -21 28 -21 3 0 16 15
29 33 l23 32 -22 18 c-24 19 -51 22 -80 7 -13 -8 -25 -7 -39 0 -12 7 -54 8
-115 4 -82 -6 -102 -11 -139 -35 -57 -38 -137 -56 -286 -64 -69 -3 -136 -7
-149 -8 -42 -3 -33 20 13 34 35 10 43 16 34 26 -13 16 9 25 137 52 54 11 100
23 103 26 13 13 -24 33 -71 38 -77 9 -186 35 -157 37 14 1 41 3 60 5 80 5 171
18 175 25 9 14 -41 75 -78 96 -30 16 -62 22 -143 27 -60 3 -111 10 -119 17
-13 11 -15 -34 -15 -373z m731 -327 c14 0 34 -8 45 -17 10 -10 34 -19 53 -19
53 -2 72 -55 26 -76 -21 -9 -28 -8 -45 7 -11 10 -17 22 -14 26 3 5 -1 6 -9 3
-8 -3 -19 -15 -25 -28 -18 -39 -50 -40 -89 -1 -49 49 -41 125 12 111 11 -3 32
-6 46 -6z m-12 -224 c15 -17 15 -37 3 -94 -12 -53 -13 -55 -44 -43 -22 8 -27
18 -33 66 -7 63 3 85 40 85 12 0 28 -6 34 -14z m167 -20 c7 -30 -1 -46 -25
-46 -33 0 -42 21 -18 46 28 30 35 30 43 0z"/>
<path d="M3926 2146 c-9 -19 -28 -44 -41 -54 -14 -11 -25 -25 -25 -31 0 -6 -4
-11 -9 -11 -5 0 -27 -24 -49 -53 -43 -55 -67 -129 -74 -227 l-3 -45 36 -3 c33
-3 37 0 43 24 4 15 18 40 31 56 13 15 35 52 49 83 15 30 31 55 36 55 5 0 7 6
4 14 -6 16 32 96 45 96 5 0 11 7 14 14 4 11 1 13 -11 9 -15 -5 -15 -4 1 8 16
13 16 16 -4 57 -12 23 -22 42 -24 42 -1 0 -10 -15 -19 -34z"/>
<path d="M4000 1975 c-6 -15 -13 -32 -16 -36 -3 -5 -3 -9 0 -9 9 0 38 61 32
67 -3 3 -10 -7 -16 -22z"/>
<path d="M385 1980 c-3 -5 1 -10 9 -10 8 0 18 5 21 10 3 6 -1 10 -9 10 -8 0
-18 -4 -21 -10z"/>
<path d="M1020 1955 c-25 -41 -18 -59 21 -53 19 2 25 10 27 34 2 18 -3 36 -11
43 -12 10 -19 5 -37 -24z"/>
<path d="M2858 1918 c7 -9 23 -57 36 -107 24 -96 43 -134 33 -65 -11 66 -51
177 -67 182 -12 4 -13 3 -2 -10z"/>
<path d="M3951 1903 c-1 -6 -4 -20 -7 -30 -5 -17 -5 -17 6 0 6 10 9 23 6 30
-3 9 -5 9 -5 0z"/>
<path d="M3467 1874 c-3 -3 -1 -20 5 -37 11 -29 12 -30 19 -9 12 33 -4 65 -24
46z"/>
<path d="M3403 1853 c-20 -7 -15 -23 6 -23 11 0 23 -5 26 -10 7 -11 -16 -52
-42 -78 -17 -18 -17 -32 1 -32 18 0 66 43 66 59 0 7 4 10 9 6 19 -11 21 15 4
42 -9 15 -17 29 -17 29 -3 6 -44 11 -53 7z"/>
<path d="M3928 1758 c-23 -28 -23 -38 1 -38 23 0 51 25 51 46 0 21 -33 17 -52
-8z"/>
<path d="M1760 1126 c0 -4 16 -22 35 -40 19 -19 38 -47 41 -63 3 -15 17 -37
31 -47 l26 -19 -6 56 c-6 57 -28 98 -57 106 -35 9 -70 13 -70 7z"/>
<path d="M1690 852 c0 -10 -6 -24 -12 -31 -11 -10 -10 -11 5 -6 15 6 26 55 12
55 -3 0 -5 -8 -5 -18z"/>
<path d="M1760 863 c0 -6 -12 -16 -27 -21 -24 -9 -17 -11 42 -11 39 -1 81 -4
95 -7 21 -6 23 -4 12 7 -7 8 -30 13 -57 11 -33 -1 -47 3 -54 16 -6 9 -11 12
-11 5z"/>
<path d="M1590 748 c-19 -23 -34 -48 -32 -56 2 -8 -1 -11 -7 -8 -5 3 -12 -7
-16 -24 -4 -19 -11 -28 -18 -23 -7 3 -3 -4 8 -16 l20 -23 6 33 c5 33 47 109
76 137 15 15 17 22 5 22 -4 0 -23 -19 -42 -42z"/>
<path d="M1780 771 c-13 -4 -64 -43 -112 -86 -75 -69 -87 -84 -88 -113 0 -20
6 -35 15 -38 8 -4 15 -10 15 -14 0 -16 -61 -30 -200 -45 -170 -18 -196 -23
-184 -35 5 -5 41 -5 84 0 41 5 117 14 169 20 54 6 97 7 100 2 3 -5 73 -12 155
-16 169 -8 183 0 76 45 -36 15 -66 32 -68 38 -2 6 -10 11 -17 11 -19 0 -45 46
-47 84 -1 33 21 74 59 108 23 21 120 38 109 20 -5 -8 0 -12 12 -12 17 0 32 18
32 36 0 6 -82 3 -110 -5z"/>
<path d="M4317 613 c-2 -43 -4 -79 -3 -80 1 -2 31 2 67 9 l64 11 -40 18 c-28
12 -34 18 -20 19 11 1 15 4 8 7 -10 3 -10 9 0 25 10 17 9 22 -2 26 -7 2 -21
13 -29 23 -30 35 -39 22 -45 -58z"/>
<path d="M4437 649 c-16 -9 -14 -13 16 -33 42 -29 130 -41 125 -18 -4 18 -75
61 -103 61 -11 0 -28 -4 -38 -10z"/>
<path d="M773 623 c9 -2 23 -2 30 0 6 3 -1 5 -18 5 -16 0 -22 -2 -12 -5z"/>
<path d="M4300 442 c0 -24 60 -49 350 -143 132 -43 187 -65 176 -71 -14 -8
-244 61 -440 132 -84 31 -96 31 -96 0 0 -25 13 -31 183 -91 226 -80 259 -90
312 -96 28 -3 250 2 495 11 528 20 636 24 753 25 l87 1 0 66 0 67 -127 -6
c-71 -3 -153 -11 -184 -18 -55 -12 -59 -12 -120 17 -59 27 -72 29 -174 28 -77
0 -172 -11 -320 -37 -298 -51 -354 -54 -440 -28 -53 17 -334 117 -442 158 -8
3 -13 -3 -13 -15z"/>
<path d="M1198 413 c7 -3 16 -2 19 1 4 3 -2 6 -13 5 -11 0 -14 -3 -6 -6z"/>
<path d="M350 351 c-47 -10 -121 -27 -165 -39 -44 -11 -104 -24 -132 -27 -48
-6 -53 -9 -53 -32 l0 -26 268 6 c147 3 279 10 294 14 l28 8 -28 57 -27 58 -50
-1 c-27 0 -88 -9 -135 -18z"/>
<path d="M3385 224 c-5 -2 -237 -6 -515 -8 -278 -3 -527 -8 -555 -10 -207 -17
-396 -59 -380 -85 21 -35 263 -37 1465 -16 463 8 766 16 795 21 40 7 75 25 75
38 0 6 -11 23 -25 38 l-24 27 -413 -1 c-227 0 -417 -2 -423 -4z"/>
<path d="M990 170 c-8 -5 -25 -10 -37 -10 -27 0 -73 -20 -73 -32 0 -12 125
-10 154 3 21 10 23 15 15 30 -11 21 -35 24 -59 9z"/>
</g>
</svg>
